<?xml version="1.0" encoding="UTF-8"?>
<svg id="Calque_2" data-name="Calque 2" xmlns="http://www.w3.org/2000/svg" xmlns:xlink="http://www.w3.org/1999/xlink" viewBox="0 0 727.98 889.76">
  <defs>
    <style>
      .cls-1 {
        isolation: isolate;
      }

      .cls-2 {
        clip-path: url(#clippath);
      }

      .cls-3 {
        fill: none;
      }

      .cls-4 {
        fill: red;
      }
    </style>
    <clipPath id="clippath">
      <polygon class="cls-3" points="108.24 889.76 73.76 315.22 619.74 0 654.22 574.54 108.24 889.76"/>
    </clipPath>
  </defs>
  <g id="Calque_1-2" data-name="Calque 1">
    <g class="cls-1">
      <g class="cls-2">
        <path class="cls-4" d="m183.56,771.98c-6.28,3.63-11.7,1.22-12.1-5.4l-2.87-47.87c-.4-6.61,4.38-14.91,10.66-18.54l45.49-26.27c6.28-3.63,11.7-1.21,12.09,5.4l2.87,47.87c.4,6.61-4.37,14.91-10.66,18.53l-45.49,26.27m341.24-197.01c-6.28,3.63-11.7,1.22-12.1-5.4l-2.87-47.87c-.4-6.61,4.38-14.91,10.66-18.54l45.5-26.27c6.28-3.63,11.7-1.21,12.09,5.4l2.87,47.87c.4,6.61-4.37,14.91-10.66,18.53l-45.5,26.27m-169.42-273.68c-18.85,10.88-35.09,3.63-36.28-16.2s13.13-44.73,31.97-55.61c18.85-10.88,35.09-3.63,36.28,16.2,1.19,19.83-13.12,44.72-31.97,55.6m-8.51-143.74c-6.3,3.64-12.64,7.93-18.98,12.91-40.92,32.13-71.27,84.91-76.46,132.99-62.01,75.34-97.5,169.97-92.89,247.71l5.08,84.64c-38.81,28.57-65.77,80.67-63.27,122.32l2.87,47.87c2.78,46.27,40.68,63.2,84.65,37.81l45.49-26.27c43.98-25.39,77.37-83.48,74.59-129.75l-2.87-47.87c-2.5-41.65-33.69-60.18-73.23-43.52l-5.08-84.64c-2.58-42.83,13.19-93.94,42.98-139.31,21.37,21.56,55.85,20.27,90.02.54,18.49-10.68,36.89-26.75,53.08-47.53,12.74-16.36,23.23-34.6,30.66-53.34,33.06,9.09,53.69,39.18,56.26,82.02l5.08,84.64c-38.81,28.57-65.77,80.67-63.27,122.32l2.87,47.87c2.78,46.27,40.68,63.2,84.65,37.81l45.5-26.27c43.98-25.39,77.37-83.48,74.59-129.75l-2.87-47.87c-2.5-41.65-33.69-60.18-73.23-43.52l-5.08-84.64c-4.71-77.68-48.8-126.36-115.4-127.44-12.38-46.35-57.5-57.6-105.75-29.75"/>
      </g>
    </g>
  </g>
</svg>