<svg id="Layer_1" data-name="Layer 1" xmlns="http://www.w3.org/2000/svg" xmlns:xlink="http://www.w3.org/1999/xlink" viewBox="0 0 681.89 227.28"><defs><style>.cls-1{fill:none;}.cls-2{clip-path:url(#clip-path);}.cls-3{fill:#fff;}.cls-4{fill:red;}</style><clipPath id="clip-path"><rect class="cls-1" width="681.89" height="227.28"/></clipPath></defs><g class="cls-2"><path class="cls-3" d="M254.6,137.25l-15-29v45.06H222.67V74h16.88l22.53,44.49L284.72,74h16.76v79.36H284.72V108.26l-15.17,29Z"/><path class="cls-3" d="M357.52,74l31,79.36H371.11l-6.34-15.62H334.09l-6.23,15.62H310.42l31-79.36Zm-8,22.87-9.86,25.92h19.71Z"/><path class="cls-3" d="M418.67,120.49c-15.52-2.6-25-10.64-25-23.78,0-7.36,2.83-13.13,8.61-17.43s12.68-6.57,20.72-6.57c12.34,0,22.53,4.19,30.57,12.68L442.22,97.28c-6-6.12-12.69-9.17-20.16-9.17-7.13,0-11.66,3.17-11.66,7.81,0,4.19,3.74,7,11.32,8.38l7.81,1.24c17.78,2.84,26.73,11.1,26.73,24.8a21.12,21.12,0,0,1-8.72,17.55c-5.78,4.42-13.36,6.68-22.87,6.68-13.93,0-25.82-6.23-32.95-15.17l11.55-11.66c5.88,7.58,13.36,11.43,22.41,11.43,8.61,0,13.82-3.62,13.82-8.6,0-4.19-3.74-7-11.1-8.38Z"/><path class="cls-3" d="M491.58,120.49c-15.51-2.6-25-10.64-25-23.78,0-7.36,2.83-13.13,8.6-17.43s12.69-6.57,20.72-6.57c12.35,0,22.54,4.19,30.58,12.68L515.13,97.28c-6-6.12-12.68-9.17-20.15-9.17-7.13,0-11.66,3.17-11.66,7.81,0,4.19,3.73,7,11.32,8.38l7.81,1.24c17.78,2.84,26.72,11.1,26.72,24.8a21.1,21.1,0,0,1-8.72,17.55c-5.77,4.42-13.36,6.68-22.87,6.68-13.92,0-25.81-6.23-32.95-15.17l11.55-11.66c5.89,7.58,13.36,11.43,22.42,11.43,8.61,0,13.82-3.62,13.82-8.6,0-4.19-3.74-7-11.1-8.38Z"/><path class="cls-3" d="M580.12,74l31,79.36H593.71l-6.34-15.62H556.69l-6.23,15.62H533l31-79.36Zm-8,22.87-9.85,25.92h19.71Z"/><circle class="cls-4" cx="126.89" cy="113.64" r="56.15"/><path class="cls-3" d="M151.81,114.56l8.6-14.9-4.07-7-17.21,0,10-17.26a44,44,0,0,0-8.63-3.86L126.89,94.94,131,102h17.21l-8.6,14.91,4.07,7.07H170a44.33,44.33,0,0,0,1.21-9.42Z"/><path class="cls-3" d="M122.81,150.65H131l8.62-14.9L149,152a44.49,44.49,0,0,0,7.65-5.56l-13-22.48H135.5l-8.62,14.91L118.28,124h-8.16l-13,22.48a43.73,43.73,0,0,0,7.65,5.56l9.39-16.26Z"/><path class="cls-3" d="M114.19,116.91,105.6,102h17.2l4.09-7.06L113.32,71.47a44,44,0,0,0-8.63,3.86l10,17.26H97.46l-4.08,7,8.6,14.92H82.61A44.33,44.33,0,0,0,83.82,124h26.3Z"/></g></svg>